<svg width="125" height="112" viewBox="0 0 125 112" fill="none" xmlns="http://www.w3.org/2000/svg">
<path d="M49.7778 80.8889V74.6667H6.28444L6.22222 99.5556C6.22222 106.462 11.76 112 18.6667 112H105.778C112.684 112 118.222 106.462 118.222 99.5556V74.6667H74.6667V80.8889H49.7778ZM112 24.8889H87.0489V12.4444L74.6044 0H49.7155L37.2711 12.4444V24.8889H12.4444C5.6 24.8889 0 30.4889 0 37.3333V56C0 62.9067 5.53778 68.4444 12.4444 68.4444H49.7778V56H74.6667V68.4444H112C118.844 68.4444 124.444 62.8444 124.444 56V37.3333C124.444 30.4889 118.844 24.8889 112 24.8889ZM74.6667 24.8889H49.7778V12.4444H74.6667V24.8889Z" fill="#BE5037"/>
</svg>
