<svg width="196" height="112" viewBox="0 0 196 112" fill="none" xmlns="http://www.w3.org/2000/svg">
<path d="M98 63C111.312 63 123.072 66.64 132.627 71.4C141.447 75.88 147 85.96 147 96.88V112H49V96.9733C49 85.96 54.5533 75.88 63.3733 71.4933C72.9283 66.64 84.6883 63 98 63ZM32.6667 65.3333C41.65 65.3333 49 56.9333 49 46.6667C49 36.4 41.65 28 32.6667 28C23.6833 28 16.3333 36.4 16.3333 46.6667C16.3333 56.9333 23.6833 65.3333 32.6667 65.3333ZM41.895 75.6C38.8733 75.04 35.8517 74.6667 32.6667 74.6667C24.5817 74.6667 16.905 76.6267 9.96333 80.08C3.92 83.0667 0 89.7867 0 97.3467V112H36.75V96.9733C36.75 89.2267 38.6283 81.9467 41.895 75.6ZM163.333 65.3333C172.317 65.3333 179.667 56.9333 179.667 46.6667C179.667 36.4 172.317 28 163.333 28C154.35 28 147 36.4 147 46.6667C147 56.9333 154.35 65.3333 163.333 65.3333ZM196 97.3467C196 89.7867 192.08 83.0667 186.037 80.08C179.095 76.6267 171.418 74.6667 163.333 74.6667C160.148 74.6667 157.127 75.04 154.105 75.6C157.372 81.9467 159.25 89.2267 159.25 96.9733V112H196V97.3467ZM98 0C111.557 0 122.5 12.5067 122.5 28C122.5 43.4933 111.557 56 98 56C84.4433 56 73.5 43.4933 73.5 28C73.5 12.5067 84.4433 0 98 0Z" fill="#BE5037"/>
</svg>
