<svg width="82" height="38" viewBox="0 0 82 38" fill="none" xmlns="http://www.w3.org/2000/svg">
<path d="M31.5133 20.2365L33.5906 23.1083H32.351L30.4364 20.3609H30.2521V23.0915H29.2398V16.3906H30.4364C31.3219 16.3906 31.9633 16.5558 32.351 16.8884C32.5642 17.0677 32.7339 17.2932 32.8471 17.5478C32.9603 17.8024 33.0141 18.0794 33.0043 18.3578C33.014 18.8013 32.8693 19.2344 32.5951 19.5831C32.324 19.923 31.9403 20.1548 31.5133 20.2365ZM30.2521 19.4683H30.5752C31.5325 19.4683 32.0111 19.1021 32.0111 18.3674C32.0111 17.6829 31.5325 17.3383 30.6111 17.3383H30.2497L30.2521 19.4683Z" fill="#F9FAFC"/>
<path d="M39.0089 17.3324H36.3213V18.9454H38.9323V19.9027H36.3213V22.1499H39.0089V23.1072H35.309V16.4062H39.0089V17.3324Z" fill="#F9FAFC"/>
<path d="M41.4021 16.3828L43.2568 21.0304L45.1378 16.3828H46.2459L43.2257 23.5863L40.2845 16.3828H41.4021Z" fill="#F9FAFC"/>
<path d="M47.1457 19.7029C47.1404 19.2477 47.23 18.7963 47.4089 18.3777C47.5877 17.9591 47.8518 17.5823 48.1844 17.2714C48.5083 16.943 48.8955 16.6835 49.3224 16.5087C49.7493 16.3339 50.2072 16.2474 50.6685 16.2543C51.5959 16.2568 52.4844 16.6267 53.1397 17.2829C53.795 17.9391 54.1637 18.8281 54.1649 19.7555C54.1708 20.212 54.0818 20.6647 53.9034 21.085C53.725 21.5052 53.4612 21.8837 53.1287 22.1966C52.4862 22.8252 51.6292 23.1867 50.7306 23.208C49.832 23.2294 48.9588 22.9089 48.2873 22.3114C47.9142 21.9895 47.618 21.5881 47.4205 21.1367C47.2229 20.6853 47.129 20.1953 47.1457 19.7029ZM48.1652 19.7172C48.1542 20.0576 48.2153 20.3964 48.3444 20.7115C48.4735 21.0265 48.6677 21.3108 48.9143 21.5456C49.1439 21.7752 49.4164 21.9574 49.7164 22.0816C50.0163 22.2059 50.3378 22.2698 50.6625 22.2698C50.9872 22.2698 51.3087 22.2059 51.6086 22.0816C51.9086 21.9574 52.1812 21.7752 52.4107 21.5456C52.8703 21.061 53.1264 20.4186 53.1264 19.7507C53.1264 19.0829 52.8703 18.4405 52.4107 17.9558C51.9419 17.4882 51.3067 17.2256 50.6446 17.2256C49.9824 17.2256 49.3472 17.4882 48.8784 17.9558C48.6484 18.187 48.4674 18.462 48.3461 18.7647C48.2248 19.0673 48.1657 19.3913 48.1724 19.7172H48.1652Z" fill="#F9FAFC"/>
<path d="M58.1903 16.3828V20.7145C58.2035 21.1044 58.1674 21.4944 58.0826 21.8752C58.0223 22.1525 57.8958 22.4111 57.714 22.629C57.5495 22.824 57.3426 22.9789 57.1091 23.0817C56.8756 23.1846 56.6216 23.2327 56.3667 23.2225C55.9449 23.2256 55.5306 23.1112 55.1701 22.8923L55.6655 22.0283C55.8673 22.1747 56.108 22.258 56.3571 22.2676C56.4866 22.2801 56.6168 22.2526 56.7302 22.1889C56.8436 22.1251 56.9347 22.0282 56.9913 21.9111C57.1406 21.5308 57.2035 21.1221 57.1756 20.7145V16.3828H58.1903Z" fill="#F9FAFC"/>
<path d="M61.5239 16.3828V20.4225C61.5239 20.9985 61.6181 21.4197 61.8063 21.6861C61.9473 21.8666 62.1276 22.0127 62.3335 22.1131C62.5394 22.2135 62.7655 22.2657 62.9945 22.2657C63.2236 22.2657 63.4497 22.2135 63.6556 22.1131C63.8615 22.0127 64.0417 21.8666 64.1828 21.6861C64.3694 21.43 64.4651 21.0064 64.4651 20.4225V16.3828H65.4775V20.6905C65.4888 21.011 65.4362 21.3305 65.3228 21.6304C65.2094 21.9304 65.0374 22.2047 64.8169 22.4376C64.5791 22.6795 64.2954 22.8716 63.9825 23.0027C63.6697 23.1339 63.3338 23.2014 62.9945 23.2014C62.6553 23.2014 62.3194 23.1339 62.0065 23.0027C61.6936 22.8716 61.41 22.6795 61.1721 22.4376C60.9517 22.2047 60.7797 21.9304 60.6663 21.6304C60.5529 21.3305 60.5003 21.011 60.5116 20.6905V16.3828H61.5239Z" fill="#F9FAFC"/>
<path d="M71.5896 17.3815L70.7687 17.8602C70.6665 17.6537 70.5153 17.4754 70.3284 17.3408C70.1594 17.2404 69.9648 17.1913 69.7684 17.1996C69.514 17.1913 69.2654 17.2764 69.0696 17.439C68.9811 17.5097 68.9101 17.5997 68.862 17.7022C68.8138 17.8047 68.7899 17.9169 68.792 18.0301C68.792 18.3579 69.0313 18.6212 69.5219 18.8222L70.1896 19.095C70.6514 19.2561 71.0636 19.5339 71.3862 19.9015C71.6443 20.234 71.778 20.6463 71.7643 21.067C71.773 21.3506 71.7228 21.6329 71.6169 21.8961C71.5111 22.1593 71.3518 22.3977 71.1492 22.5963C70.9463 22.7965 70.7049 22.9535 70.4396 23.058C70.1743 23.1625 69.8906 23.2122 69.6056 23.2041C69.0786 23.2212 68.5649 23.0363 68.1697 22.6872C67.7743 22.2984 67.5271 21.7838 67.4709 21.2321L68.4976 21.0072C68.5091 21.2947 68.5913 21.575 68.7369 21.8233C68.8366 21.9487 68.9613 22.052 69.1031 22.1266C69.245 22.2012 69.4008 22.2454 69.5606 22.2565C69.7205 22.2675 69.8809 22.2451 70.0316 22.1907C70.1824 22.1363 70.3201 22.0511 70.4361 21.9405C70.54 21.8347 70.6214 21.7088 70.6753 21.5706C70.7292 21.4324 70.7545 21.2847 70.7496 21.1364C70.7505 21.0154 70.7319 20.895 70.6945 20.7798C70.6579 20.6693 70.6002 20.5669 70.5246 20.4783C70.4357 20.3832 70.3333 20.3018 70.2207 20.2366C70.0828 20.1441 69.9371 20.064 69.7851 19.9973L69.139 19.7268C68.22 19.3391 67.7605 18.772 67.7605 18.0253C67.7569 17.7845 67.807 17.5459 67.9072 17.3269C68.0073 17.1079 68.1551 16.914 68.3396 16.7593C68.7364 16.4134 69.2494 16.2304 69.7756 16.2471C70.5509 16.2503 71.1556 16.6285 71.5896 17.3815Z" fill="#F9FAFC"/>
<path d="M21.0216 20.4909L26.0162 15.2116L19.2315 8.42691H9.49605L9.48169 8.41016V8.42691V8.45323L9.10835 29.1519L13.8373 22.3409L29.2924 29.1471L21.0216 20.4909ZM11.6882 12.2799C11.8416 12.3314 11.9798 12.4202 12.0903 12.5384L25.2336 26.2944L14.5528 21.5942L11.6882 12.2799ZM10.9702 9.96094L10.9056 9.75512L24.5109 15.4006L20.3419 19.7873L10.9702 9.96094ZM23.276 13.8379L12.5665 9.39615H18.8295L23.276 13.8379ZM10.3672 13.2061C10.3681 13.0642 10.4001 12.9243 10.4608 12.7962C10.5216 12.668 10.6097 12.5547 10.719 12.4642L13.4257 21.2328L10.135 25.9809L10.3672 13.2061Z" fill="#BE5037"/>
</svg>
