<svg width="90" height="30" viewBox="0 0 90 30" fill="none" xmlns="http://www.w3.org/2000/svg">
<path d="M32.3828 16.7229L35.32 20.7835H33.5671L30.8601 16.8989H30.5996V20.7598H29.1682V11.2852H30.8601C32.1121 11.2852 33.019 11.5186 33.5671 11.989C33.8687 12.2425 34.1086 12.5613 34.2687 12.9213C34.4287 13.2812 34.5047 13.6729 34.4909 14.0666C34.5046 14.6937 34.3001 15.3061 33.9123 15.7991C33.5291 16.2797 32.9866 16.6074 32.3828 16.7229ZM30.5996 15.6367H31.0564C32.4099 15.6367 33.0866 15.119 33.0866 14.0802C33.0866 13.1124 32.4099 12.6251 31.1071 12.6251H30.5962L30.5996 15.6367Z" fill="#F9FAFC"/>
<path d="M42.9809 12.6181H39.1809V14.8988H42.8726V16.2523H39.1809V19.4297H42.9809V20.7832H37.7495V11.3086H42.9809V12.6181Z" fill="#F9FAFC"/>
<path d="M46.3647 11.2754L48.9871 17.8467L51.6468 11.2754H53.2135L48.9431 21.4606L44.7844 11.2754H46.3647Z" fill="#F9FAFC"/>
<path d="M54.4857 15.9723C54.4782 15.3287 54.6049 14.6905 54.8578 14.0986C55.1106 13.5067 55.4841 12.9739 55.9543 12.5344C56.4124 12.07 56.9597 11.7032 57.5634 11.456C58.167 11.2089 58.8144 11.0865 59.4667 11.0962C60.7779 11.0998 62.0343 11.6228 62.9608 12.5506C63.8874 13.4784 64.4086 14.7355 64.4104 16.0467C64.4187 16.6922 64.2928 17.3323 64.0406 17.9265C63.7883 18.5207 63.4153 19.0559 62.9452 19.4982C62.0368 20.3871 60.825 20.8982 59.5545 20.9284C58.2839 20.9585 57.0493 20.5054 56.0998 19.6606C55.5723 19.2055 55.1535 18.6379 54.8742 17.9996C54.5948 17.3614 54.4621 16.6686 54.4857 15.9723ZM55.9272 15.9926C55.9117 16.4738 55.998 16.9529 56.1805 17.3984C56.3631 17.8439 56.6377 18.2458 56.9863 18.5778C57.3109 18.9025 57.6963 19.16 58.1204 19.3357C58.5445 19.5114 58.9991 19.6018 59.4582 19.6018C59.9173 19.6018 60.3719 19.5114 60.796 19.3357C61.2201 19.16 61.6055 18.9025 61.9301 18.5778C62.5798 17.8926 62.942 16.9843 62.942 16.04C62.942 15.0957 62.5798 14.1873 61.9301 13.5021C61.2672 12.8409 60.3691 12.4696 59.4328 12.4696C58.4965 12.4696 57.5985 12.8409 56.9356 13.5021C56.6104 13.8289 56.3544 14.2178 56.1829 14.6457C56.0114 15.0736 55.9279 15.5317 55.9374 15.9926H55.9272Z" fill="#F9FAFC"/>
<path d="M70.102 11.2754V17.4001C70.1208 17.9513 70.0696 18.5028 69.9497 19.0412C69.8644 19.4333 69.6857 19.799 69.4286 20.1071C69.196 20.3828 68.9034 20.6017 68.5732 20.7472C68.2431 20.8926 67.884 20.9607 67.5236 20.9463C66.9272 20.9506 66.3414 20.7889 65.8317 20.4793L66.5321 19.2578C66.8175 19.4647 67.1578 19.5825 67.51 19.5961C67.6931 19.6138 67.8772 19.5749 68.0375 19.4848C68.1978 19.3946 68.3267 19.2575 68.4067 19.092C68.6178 18.5542 68.7068 17.9764 68.6673 17.4001V11.2754H70.102Z" fill="#F9FAFC"/>
<path d="M74.8155 11.2754V16.9872C74.8155 17.8016 74.9486 18.3971 75.2148 18.7739C75.4142 19.0291 75.6691 19.2356 75.9602 19.3776C76.2513 19.5196 76.571 19.5934 76.8949 19.5934C77.2188 19.5934 77.5384 19.5196 77.8295 19.3776C78.1206 19.2356 78.3756 19.0291 78.5749 18.7739C78.8389 18.4118 78.9742 17.8129 78.9742 16.9872V11.2754H80.4056V17.3662C80.4215 17.8193 80.3472 18.2711 80.1868 18.6952C80.0265 19.1192 79.7834 19.5072 79.4716 19.8364C79.1353 20.1784 78.7343 20.4501 78.2919 20.6355C77.8495 20.8209 77.3746 20.9164 76.8949 20.9164C76.4152 20.9164 75.9403 20.8209 75.4979 20.6355C75.0555 20.4501 74.6545 20.1784 74.3181 19.8364C74.0064 19.5072 73.7633 19.1192 73.6029 18.6952C73.4426 18.2711 73.3682 17.8193 73.3842 17.3662V11.2754H74.8155Z" fill="#F9FAFC"/>
<path d="M89.0479 12.6855L87.8872 13.3622C87.7427 13.0704 87.5289 12.8183 87.2646 12.628C87.0257 12.4859 86.7505 12.4166 86.4728 12.4283C86.1132 12.4165 85.7617 12.5369 85.4847 12.7667C85.3597 12.8667 85.2593 12.994 85.1912 13.1389C85.1232 13.2838 85.0893 13.4424 85.0922 13.6025C85.0922 14.0661 85.4306 14.4383 86.1243 14.7225L87.0684 15.1083C87.7213 15.336 88.3042 15.7289 88.7603 16.2486C89.1252 16.7188 89.3143 17.3017 89.2949 17.8965C89.3072 18.2975 89.2362 18.6966 89.0866 19.0687C88.9369 19.4409 88.7117 19.778 88.4253 20.0588C88.1383 20.3419 87.7969 20.5639 87.4219 20.7116C87.0468 20.8594 86.6457 20.9296 86.2427 20.9183C85.4975 20.9424 84.7712 20.681 84.2124 20.1874C83.6534 19.6377 83.3039 18.91 83.2244 18.13L84.676 17.8119C84.6923 18.2185 84.8085 18.6148 85.0144 18.9658C85.1553 19.1432 85.3317 19.2893 85.5322 19.3947C85.7328 19.5002 85.9531 19.5627 86.1791 19.5783C86.4051 19.5939 86.6319 19.5623 86.845 19.4853C87.0582 19.4084 87.2529 19.288 87.4169 19.1316C87.5639 18.982 87.679 18.804 87.7551 18.6086C87.8313 18.4132 87.8671 18.2043 87.8602 17.9947C87.8615 17.8235 87.8352 17.6532 87.7823 17.4905C87.7306 17.3341 87.649 17.1893 87.5421 17.0641C87.4164 16.9297 87.2716 16.8146 87.1124 16.7224C86.9174 16.5916 86.7114 16.4784 86.4965 16.384L85.5829 16.0016C84.2835 15.4534 83.6338 14.6515 83.6338 13.5957C83.6287 13.2553 83.6995 12.9179 83.8412 12.6083C83.9828 12.2986 84.1917 12.0245 84.4527 11.8057C85.0137 11.3166 85.739 11.0579 86.483 11.0816C87.5793 11.0861 88.4343 11.6207 89.0479 12.6855Z" fill="#F9FAFC"/>
<path d="M17.5483 17.0814L24.6102 9.61674L15.0172 0.0236865H1.25191L1.23161 0V0.0236865V0.0609071L0.703735 29.3273L7.39011 19.6971L29.2427 29.3206L17.5483 17.0814ZM4.35146 5.47159C4.56837 5.54431 4.76374 5.6699 4.91994 5.83704L23.5037 25.2871L8.40187 18.6413L4.35146 5.47159ZM3.33633 2.1927L3.24496 1.90169L22.4818 9.88406L16.5873 16.0866L3.33633 2.1927ZM20.7358 7.67444L5.59332 1.39412H14.4487L20.7358 7.67444ZM2.48361 6.78112C2.48493 6.58057 2.53014 6.38273 2.61607 6.20151C2.70201 6.02029 2.82657 5.86009 2.98103 5.73215L6.8081 18.1304L2.15538 24.8438L2.48361 6.78112Z" fill="#BE5037"/>
</svg>
