<svg width="179" height="82" viewBox="0 0 179 82" fill="none" xmlns="http://www.w3.org/2000/svg">
<path d="M68.7913 44.0178L73.3259 50.2867H70.6197L66.4404 44.2894H66.0382V50.2502H63.8284V35.6226H66.4404C68.3734 35.6226 69.7734 35.983 70.6197 36.7092C71.0853 37.1005 71.4557 37.5927 71.7028 38.1485C71.9499 38.7043 72.0673 39.309 72.0459 39.9168C72.067 40.885 71.7513 41.8304 71.1526 42.5916C70.561 43.3336 69.7234 43.8394 68.7913 44.0178ZM66.0382 42.3408H66.7434C68.8331 42.3408 69.8779 41.5415 69.8779 39.9377C69.8779 38.4436 68.8331 37.6913 66.8218 37.6913H66.033L66.0382 42.3408Z" fill="#95949A"/>
<path d="M85.1536 37.6804H79.2868V41.2015H84.9864V43.2912H79.2868V48.1966H85.1536V50.2863H77.077V35.6587H85.1536V37.6804Z" fill="#95949A"/>
<path d="M90.3777 35.6064L94.4264 45.7517L98.5325 35.6064H100.951L94.3585 51.3311L87.938 35.6064H90.3777Z" fill="#95949A"/>
<path d="M102.916 42.8579C102.904 41.8642 103.1 40.8791 103.49 39.9652C103.88 39.0513 104.457 38.2288 105.183 37.5502C105.89 36.8333 106.735 36.267 107.667 35.8854C108.599 35.5038 109.599 35.3149 110.606 35.3299C112.63 35.3355 114.57 36.1428 116 37.5752C117.431 39.0077 118.235 40.9485 118.238 42.9729C118.251 43.9693 118.057 44.9576 117.667 45.8749C117.278 46.7923 116.702 47.6186 115.976 48.3015C114.574 49.6738 112.703 50.4629 110.741 50.5094C108.78 50.556 106.873 49.8565 105.408 48.5522C104.593 47.8496 103.947 46.9733 103.515 45.9879C103.084 45.0025 102.879 43.9329 102.916 42.8579ZM105.141 42.8893C105.117 43.6322 105.25 44.3718 105.532 45.0596C105.814 45.7474 106.238 46.3679 106.776 46.8805C107.277 47.3817 107.872 47.7793 108.527 48.0506C109.182 48.3218 109.884 48.4614 110.593 48.4614C111.301 48.4614 112.003 48.3218 112.658 48.0506C113.313 47.7793 113.908 47.3817 114.409 46.8805C115.412 45.8226 115.971 44.4203 115.971 42.9624C115.971 41.5045 115.412 40.1022 114.409 39.0443C113.385 38.0235 111.999 37.4502 110.553 37.4502C109.108 37.4502 107.721 38.0235 106.698 39.0443C106.196 39.5488 105.801 40.1493 105.536 40.8099C105.271 41.4705 105.142 42.1777 105.157 42.8893H105.141Z" fill="#95949A"/>
<path d="M127.025 35.6064V45.0621C127.054 45.9132 126.975 46.7646 126.79 47.5958C126.658 48.2012 126.382 48.7657 125.986 49.2415C125.626 49.6671 125.175 50.0051 124.665 50.2297C124.155 50.4542 123.601 50.5593 123.044 50.537C122.124 50.5437 121.219 50.2941 120.432 49.8161L121.514 47.9302C121.954 48.2497 122.48 48.4315 123.023 48.4526C123.306 48.4798 123.59 48.4198 123.838 48.2807C124.085 48.1415 124.284 47.9299 124.408 47.6742C124.734 46.844 124.871 45.9519 124.81 45.0621V35.6064H127.025Z" fill="#95949A"/>
<path d="M134.302 35.6064V44.4248C134.302 45.6821 134.508 46.6015 134.919 47.1831C135.226 47.5772 135.62 47.896 136.069 48.1152C136.519 48.3345 137.012 48.4484 137.512 48.4484C138.012 48.4484 138.506 48.3345 138.955 48.1152C139.405 47.896 139.798 47.5772 140.106 47.1831C140.514 46.6242 140.723 45.6995 140.723 44.4248V35.6064H142.932V45.0099C142.957 45.7094 142.842 46.4069 142.595 47.0616C142.347 47.7163 141.972 48.3153 141.491 48.8235C140.971 49.3516 140.352 49.7709 139.669 50.0572C138.986 50.3435 138.253 50.4909 137.512 50.4909C136.772 50.4909 136.039 50.3435 135.356 50.0572C134.673 49.7709 134.053 49.3516 133.534 48.8235C133.053 48.3153 132.678 47.7163 132.43 47.0616C132.183 46.4069 132.068 45.7094 132.092 45.0099V35.6064H134.302Z" fill="#95949A"/>
<path d="M156.275 37.7852L154.483 38.83C154.26 38.3794 153.93 37.9902 153.522 37.6964C153.153 37.4771 152.728 37.37 152.299 37.3881C151.744 37.37 151.201 37.5558 150.774 37.9106C150.581 38.0649 150.426 38.2615 150.321 38.4852C150.216 38.7089 150.163 38.9538 150.168 39.2009C150.168 39.9166 150.69 40.4913 151.761 40.9301L153.219 41.5257C154.227 41.8773 155.127 42.4838 155.831 43.2862C156.394 44.012 156.686 44.912 156.656 45.8304C156.675 46.4493 156.566 47.0656 156.335 47.6401C156.103 48.2147 155.756 48.7351 155.314 49.1686C154.87 49.6056 154.344 49.9485 153.764 50.1765C153.185 50.4046 152.566 50.5131 151.944 50.4955C150.794 50.5328 149.672 50.1292 148.81 49.3671C147.946 48.5185 147.407 47.395 147.284 46.1908L149.525 45.6998C149.55 46.3275 149.73 46.9393 150.048 47.4812C150.265 47.7551 150.538 47.9806 150.847 48.1434C151.157 48.3062 151.497 48.4027 151.846 48.4268C152.195 48.4509 152.545 48.402 152.874 48.2833C153.203 48.1645 153.504 47.9786 153.757 47.7372C153.984 47.5061 154.161 47.2314 154.279 46.9297C154.397 46.628 154.452 46.3055 154.441 45.9819C154.443 45.7176 154.403 45.4548 154.321 45.2035C154.241 44.9621 154.115 44.7386 153.95 44.5452C153.756 44.3377 153.532 44.1599 153.287 44.0176C152.986 43.8158 152.668 43.641 152.336 43.4952L150.925 42.9048C148.919 42.0585 147.916 40.8204 147.916 39.1905C147.908 38.6648 148.018 38.144 148.236 37.666C148.455 37.1879 148.778 36.7646 149.18 36.4269C150.047 35.6718 151.166 35.2724 152.315 35.3089C154.008 35.3159 155.328 36.1413 156.275 37.7852Z" fill="#95949A"/>
<path d="M45.8886 44.5712L56.7914 33.0467L41.9809 18.2363H20.7291L20.6978 18.1997V18.2363V18.2937L19.8828 63.4773L30.2057 48.6094L63.9432 63.4669L45.8886 44.5712ZM25.5144 26.6471C25.8493 26.7594 26.1509 26.9533 26.3921 27.2114L55.0831 57.2397L31.7677 46.9795L25.5144 26.6471ZM23.9472 21.585L23.8061 21.1357L53.5054 33.4594L44.4049 43.0353L23.9472 21.585ZM50.8097 30.0481L27.4317 20.3521H41.1033L50.8097 30.0481ZM22.6307 28.6689C22.6327 28.3593 22.7025 28.0538 22.8352 27.774C22.9679 27.4943 23.1602 27.2469 23.3987 27.0494L29.3072 46.1907L22.124 56.5554L22.6307 28.6689Z" fill="#C9593F"/>
</svg>
