<svg width="270" height="122" viewBox="0 0 270 122" fill="none" xmlns="http://www.w3.org/2000/svg">
<path d="M103.492 65.7639L110.314 75.1587H106.243L99.9551 66.171H99.3499V75.1039H96.0254V53.1826H99.9551C102.863 53.1826 104.969 53.7228 106.243 54.8111C106.943 55.3976 107.5 56.1352 107.872 56.9681C108.244 57.8009 108.42 58.7072 108.388 59.6181C108.42 61.069 107.945 62.4859 107.044 63.6266C106.154 64.7385 104.894 65.4966 103.492 65.7639ZM99.3499 63.2508H100.411C103.555 63.2508 105.127 62.0529 105.127 59.6494C105.127 57.4103 103.555 56.2829 100.529 56.2829H99.342L99.3499 63.2508Z" fill="#F9FAFC"/>
<path d="M128.107 56.2671H119.281V61.5439H127.856V64.6755H119.281V72.027H128.107V75.1586H115.957V53.2373H128.107V56.2671Z" fill="#F9FAFC"/>
<path d="M135.967 53.1592L142.058 68.3632L148.235 53.1592H151.874L141.956 76.7246L132.297 53.1592H135.967Z" fill="#F9FAFC"/>
<path d="M154.829 64.0261C154.812 62.5369 155.106 61.0605 155.694 59.6909C156.281 58.3214 157.148 57.0888 158.24 56.0718C159.304 54.9974 160.576 54.1487 161.978 53.5768C163.38 53.005 164.883 52.7218 166.398 52.7444C169.444 52.7527 172.362 53.9626 174.514 56.1093C176.666 58.256 177.877 61.1645 177.881 64.1983C177.9 65.6917 177.608 67.1727 177.022 68.5475C176.436 69.9222 175.57 71.1606 174.478 72.1839C172.368 74.2405 169.553 75.4231 166.602 75.4928C163.651 75.5626 160.784 74.5143 158.578 72.5597C157.353 71.5067 156.38 70.1935 155.732 68.7167C155.083 67.2399 154.775 65.6371 154.829 64.0261ZM158.177 64.073C158.141 65.1864 158.342 66.2948 158.766 67.3256C159.19 68.3564 159.828 69.2863 160.637 70.0544C161.391 70.8056 162.286 71.4014 163.271 71.8079C164.257 72.2144 165.312 72.4236 166.379 72.4236C167.445 72.4236 168.501 72.2144 169.486 71.8079C170.471 71.4014 171.366 70.8056 172.12 70.0544C173.629 68.4691 174.47 66.3675 174.47 64.1827C174.47 61.9978 173.629 59.8963 172.12 58.3109C170.58 56.781 168.494 55.9218 166.32 55.9218C164.145 55.9218 162.059 56.781 160.52 58.3109C159.764 59.0669 159.17 59.9668 158.771 60.9568C158.373 61.9469 158.179 63.0067 158.201 64.073H158.177Z" fill="#F9FAFC"/>
<path d="M191.1 53.1592V67.3297C191.143 68.6052 191.024 69.8811 190.746 71.1268C190.548 72.034 190.133 72.8801 189.536 73.593C188.995 74.2309 188.316 74.7375 187.549 75.074C186.782 75.4104 185.948 75.568 185.111 75.5346C183.726 75.5445 182.365 75.1705 181.181 74.4542L182.808 71.6279C183.471 72.1068 184.261 72.3792 185.08 72.4108C185.505 72.4516 185.932 72.3617 186.305 72.1531C186.677 71.9446 186.976 71.6274 187.162 71.2443C187.652 70.0001 187.859 68.6631 187.767 67.3297V53.1592H191.1Z" fill="#F9FAFC"/>
<path d="M202.048 53.1592V66.3746C202.048 68.2588 202.357 69.6367 202.976 70.5083C203.439 71.0989 204.031 71.5767 204.707 71.9052C205.383 72.2338 206.125 72.4045 206.878 72.4045C207.63 72.4045 208.372 72.2338 209.049 71.9052C209.725 71.5767 210.317 71.0989 210.78 70.5083C211.393 69.6706 211.707 68.2849 211.707 66.3746V53.1592H215.032V67.2515C215.069 68.2998 214.896 69.345 214.524 70.3262C214.151 71.3074 213.587 72.205 212.863 72.9667C212.081 73.758 211.15 74.3865 210.122 74.8155C209.095 75.2445 207.992 75.4655 206.878 75.4655C205.764 75.4655 204.661 75.2445 203.633 74.8155C202.606 74.3865 201.674 73.758 200.893 72.9667C200.169 72.205 199.604 71.3074 199.232 70.3262C198.859 69.345 198.687 68.2998 198.724 67.2515V53.1592H202.048Z" fill="#F9FAFC"/>
<path d="M235.105 56.4244L232.409 57.9902C232.073 57.3148 231.577 56.7316 230.963 56.2913C230.408 55.9627 229.769 55.8022 229.124 55.8294C228.288 55.8021 227.472 56.0806 226.829 56.6123C226.538 56.8436 226.305 57.1382 226.147 57.4735C225.989 57.8087 225.91 58.1757 225.917 58.546C225.917 59.6186 226.703 60.4798 228.314 61.1375L230.507 62.03C232.023 62.5569 233.377 63.4658 234.437 64.6684C235.284 65.7561 235.723 67.1048 235.678 68.4811C235.707 69.4087 235.542 70.3322 235.194 71.1932C234.847 72.0543 234.324 72.8342 233.658 73.4839C232.992 74.1388 232.199 74.6527 231.328 74.9944C230.457 75.3362 229.525 75.4988 228.589 75.4724C226.858 75.5284 225.171 74.9234 223.874 73.7814C222.575 72.5096 221.763 70.8259 221.579 69.0213L224.95 68.2854C224.988 69.2261 225.258 70.143 225.736 70.9551C226.064 71.3655 226.473 71.7035 226.939 71.9475C227.405 72.1915 227.916 72.3362 228.441 72.3722C228.966 72.4083 229.493 72.3351 229.988 72.1571C230.483 71.9792 230.935 71.7005 231.316 71.3387C231.658 70.9925 231.925 70.5808 232.102 70.1286C232.279 69.6765 232.362 69.1932 232.346 68.7081C232.349 68.3121 232.288 67.9182 232.165 67.5416C232.045 67.1799 231.855 66.8449 231.607 66.5552C231.315 66.2442 230.979 65.9778 230.609 65.7644C230.156 65.462 229.678 65.2 229.179 64.9815L227.057 64.0968C224.039 62.8285 222.53 60.973 222.53 58.5304C222.518 57.7426 222.682 56.9622 223.011 56.2457C223.34 55.5293 223.825 54.8949 224.432 54.3888C225.735 53.2573 227.419 52.6587 229.147 52.7134C231.694 52.7238 233.679 53.9608 235.105 56.4244Z" fill="#F9FAFC"/>
<path d="M69.0365 66.5943L85.439 49.3234L63.1578 27.128H31.1859L31.1388 27.0732V27.128V27.2142L29.9127 94.9276L45.4428 72.6461L96.1985 94.9119L69.0365 66.5943ZM38.3851 39.7328C38.8889 39.901 39.3427 40.1916 39.7055 40.5783L82.869 85.5797L47.7927 70.2034L38.3851 39.7328ZM36.0273 32.1465L35.8151 31.4732L80.4955 49.9419L66.8045 64.2925L36.0273 32.1465ZM76.4401 44.8295L41.2695 30.2988H61.8374L76.4401 44.8295ZM34.0467 42.7626C34.0498 42.2986 34.1548 41.8409 34.3544 41.4216C34.554 41.0023 34.8433 40.6317 35.2021 40.3356L44.091 69.0213L33.2844 84.5541L34.0467 42.7626Z" fill="#BE5037"/>
</svg>
