<svg width="371" height="383" viewBox="0 0 371 383" fill="none" xmlns="http://www.w3.org/2000/svg">
<path d="M218.877 222.916L310.639 125.921L185.988 1.26921H7.12294L6.85912 0.961426V1.26921V1.75285L0 382.039L86.8823 256.904L370.833 381.951L218.877 222.916ZM47.3983 72.0589C50.2168 73.0037 52.7555 74.6358 54.7851 76.8076L296.262 329.54L100.029 243.185L47.3983 72.0589ZM34.2077 29.4532L33.0205 25.6719L282.983 129.394L206.389 209.989L34.2077 29.4532ZM260.295 100.683L63.5349 19.0766H178.601L260.295 100.683ZM23.1276 89.0749C23.1447 86.4688 23.7322 83.8982 24.8488 81.5434C25.9654 79.1887 27.584 77.107 29.591 75.4445L79.3197 236.546L18.8626 323.78L23.1276 89.0749Z" fill="#F9FAFC"/>
</svg>
