<svg width="179" height="82" viewBox="0 0 179 82" fill="none" xmlns="http://www.w3.org/2000/svg">
<path d="M68.7913 44.0182L73.3259 50.2872H70.6198L66.4405 44.2899H66.0382V50.2506H63.8284V35.623H66.4405C68.3734 35.623 69.7735 35.9835 70.6198 36.7097C71.0854 37.101 71.4557 37.5932 71.7028 38.149C71.9499 38.7047 72.0673 39.3095 72.046 39.9173C72.0671 40.8854 71.7513 41.8309 71.1526 42.592C70.561 43.334 69.7234 43.8399 68.7913 44.0182ZM66.0382 42.3413H66.7435C68.8331 42.3413 69.878 41.542 69.878 39.9382C69.878 38.4441 68.8331 37.6918 66.8218 37.6918H66.033L66.0382 42.3413Z" fill="#F9FAFC"/>
<path d="M85.1535 37.6799H79.2868V41.201H84.9863V43.2907H79.2868V48.1961H85.1535V50.2858H77.077V35.6582H85.1535V37.6799Z" fill="#F9FAFC"/>
<path d="M90.3777 35.6074L94.4264 45.7527L98.5326 35.6074H100.951L94.3585 51.3321L87.938 35.6074H90.3777Z" fill="#F9FAFC"/>
<path d="M102.916 42.8589C102.904 41.8652 103.1 40.88 103.49 39.9662C103.88 39.0523 104.457 38.2298 105.183 37.5512C105.89 36.8342 106.735 36.2679 107.667 35.8864C108.599 35.5048 109.599 35.3158 110.606 35.3309C112.63 35.3364 114.57 36.1438 116 37.5762C117.431 39.0086 118.235 40.9495 118.238 42.9738C118.251 43.9703 118.057 44.9586 117.667 45.8759C117.278 46.7932 116.702 47.6196 115.976 48.3025C114.574 49.6748 112.703 50.4639 110.741 50.5104C108.78 50.557 106.873 49.8575 105.408 48.5532C104.593 47.8505 103.947 46.9743 103.515 45.9889C103.084 45.0034 102.879 43.9339 102.916 42.8589ZM105.141 42.8902C105.117 43.6332 105.25 44.3728 105.532 45.0606C105.814 45.7484 106.238 46.3689 106.776 46.8815C107.277 47.3827 107.872 47.7803 108.527 48.0515C109.182 48.3228 109.884 48.4624 110.593 48.4624C111.301 48.4624 112.003 48.3228 112.658 48.0515C113.313 47.7803 113.908 47.3827 114.409 46.8815C115.412 45.8236 115.971 44.4213 115.971 42.9634C115.971 41.5055 115.412 40.1032 114.409 39.0453C113.385 38.0244 111.999 37.4511 110.553 37.4511C109.108 37.4511 107.721 38.0244 106.698 39.0453C106.196 39.5498 105.801 40.1503 105.536 40.8109C105.271 41.4715 105.142 42.1787 105.157 42.8902H105.141Z" fill="#F9FAFC"/>
<path d="M127.025 35.6074V45.0631C127.054 45.9142 126.975 46.7656 126.79 47.5968C126.658 48.2022 126.382 48.7667 125.986 49.2424C125.626 49.6681 125.175 50.0061 124.665 50.2306C124.155 50.4552 123.601 50.5603 123.044 50.538C122.124 50.5447 121.219 50.295 120.432 49.8171L121.514 47.9312C121.954 48.2507 122.48 48.4325 123.023 48.4536C123.306 48.4808 123.59 48.4208 123.838 48.2817C124.085 48.1425 124.284 47.9308 124.408 47.6752C124.734 46.845 124.871 45.9529 124.81 45.0631V35.6074H127.025Z" fill="#F9FAFC"/>
<path d="M134.302 35.6074V44.4258C134.302 45.683 134.508 46.6025 134.919 47.1841C135.227 47.5782 135.62 47.897 136.07 48.1162C136.519 48.3355 137.012 48.4494 137.512 48.4494C138.013 48.4494 138.506 48.3355 138.955 48.1162C139.405 47.897 139.798 47.5782 140.106 47.1841C140.514 46.6251 140.723 45.7005 140.723 44.4258V35.6074H142.933V45.0109C142.957 45.7104 142.842 46.4078 142.595 47.0626C142.347 47.7173 141.972 48.3162 141.491 48.8245C140.971 49.3525 140.352 49.7719 139.669 50.0582C138.986 50.3445 138.253 50.4919 137.512 50.4919C136.772 50.4919 136.039 50.3445 135.356 50.0582C134.673 49.7719 134.054 49.3525 133.534 48.8245C133.053 48.3162 132.678 47.7173 132.43 47.0626C132.183 46.4078 132.068 45.7104 132.092 45.0109V35.6074H134.302Z" fill="#F9FAFC"/>
<path d="M156.275 37.7852L154.483 38.83C154.26 38.3794 153.93 37.9902 153.522 37.6964C153.153 37.4771 152.728 37.37 152.299 37.3881C151.744 37.37 151.201 37.5558 150.774 37.9106C150.581 38.0649 150.426 38.2615 150.321 38.4852C150.216 38.7089 150.163 38.9538 150.168 39.2009C150.168 39.9166 150.69 40.4913 151.761 40.9301L153.219 41.5257C154.227 41.8773 155.127 42.4838 155.831 43.2862C156.394 44.012 156.686 44.912 156.656 45.8304C156.675 46.4493 156.566 47.0656 156.335 47.6401C156.103 48.2147 155.756 48.7351 155.314 49.1686C154.87 49.6056 154.344 49.9485 153.764 50.1765C153.185 50.4046 152.566 50.5131 151.944 50.4955C150.794 50.5328 149.672 50.1292 148.81 49.3671C147.946 48.5185 147.407 47.395 147.284 46.1908L149.525 45.6998C149.55 46.3275 149.73 46.9393 150.048 47.4812C150.265 47.7551 150.538 47.9806 150.847 48.1434C151.157 48.3062 151.497 48.4027 151.846 48.4268C152.195 48.4509 152.545 48.402 152.874 48.2833C153.203 48.1645 153.504 47.9786 153.757 47.7372C153.984 47.5061 154.161 47.2314 154.279 46.9297C154.397 46.628 154.452 46.3055 154.441 45.9819C154.443 45.7176 154.403 45.4548 154.321 45.2035C154.241 44.9621 154.115 44.7386 153.95 44.5452C153.756 44.3377 153.532 44.1599 153.287 44.0176C152.986 43.8158 152.668 43.641 152.336 43.4952L150.925 42.9048C148.919 42.0585 147.916 40.8204 147.916 39.1905C147.908 38.6648 148.018 38.144 148.236 37.666C148.455 37.1879 148.778 36.7646 149.18 36.4269C150.047 35.6718 151.166 35.2724 152.315 35.3089C154.008 35.3159 155.328 36.1413 156.275 37.7852Z" fill="#F9FAFC"/>
<path d="M45.8886 44.5707L56.7914 33.0462L41.981 18.2358H20.7292L20.6978 18.1992V18.2358V18.2933L19.8829 63.4769L30.2058 48.6089L63.9433 63.4664L45.8886 44.5707ZM25.5145 26.6467C25.8494 26.7589 26.151 26.9528 26.3922 27.2109L55.0831 57.2392L31.7678 46.979L25.5145 26.6467ZM23.9473 21.5845L23.8062 21.1352L53.5054 33.4589L44.405 43.0348L23.9473 21.5845ZM50.8098 30.0476L27.4318 20.3516H41.1033L50.8098 30.0476ZM22.6308 28.6684C22.6328 28.3588 22.7026 28.0533 22.8353 27.7736C22.9679 27.4938 23.1603 27.2464 23.3987 27.0489L29.3072 46.1902L22.124 56.5549L22.6308 28.6684Z" fill="#BE5037"/>
</svg>
