<svg width="24" height="20" viewBox="0 0 24 20" fill="none" xmlns="http://www.w3.org/2000/svg">
<path d="M1.8 19.6004C1.32 19.6004 0.9 19.4204 0.54 19.0604C0.18 18.7004 0 18.2804 0 17.8004V2.20039C0 1.72039 0.18 1.30039 0.54 0.94039C0.9 0.58039 1.32 0.400391 1.8 0.400391H22.2C22.68 0.400391 23.1 0.58039 23.46 0.94039C23.82 1.30039 24 1.72039 24 2.20039V17.8004C24 18.2804 23.82 18.7004 23.46 19.0604C23.1 19.4204 22.68 19.6004 22.2 19.6004H1.8ZM12 10.5404L1.8 3.85039V17.8004H22.2V3.85039L12 10.5404ZM12 8.74039L22.08 2.20039H1.95L12 8.74039ZM1.8 3.85039V2.20039V17.8004V3.85039Z" fill="#180E38"/>
</svg>
