<svg width="99" height="96" viewBox="0 0 99 96" fill="none" xmlns="http://www.w3.org/2000/svg">
<path d="M49.4999 46.3768C42.6979 46.3768 37.1327 44.2126 32.8042 39.8841C28.4757 35.5556 26.3114 29.9903 26.3114 23.1884C26.3114 16.3865 28.4757 10.8213 32.8042 6.49276C37.1327 2.16425 42.6979 0 49.4999 0C56.3018 0 61.867 2.16425 66.1955 6.49276C70.524 10.8213 72.6883 16.3865 72.6883 23.1884C72.6883 29.9903 70.524 35.5556 66.1955 39.8841C61.867 44.2126 56.3018 46.3768 49.4999 46.3768V46.3768ZM0.03125 96V81.4686C0.03125 77.5523 1.01032 74.2029 2.96845 71.4203C4.92658 68.6377 7.45154 66.525 10.5433 65.0821C17.4483 61.9903 24.0699 59.6715 30.4081 58.1256C36.7462 56.5797 43.1102 55.8068 49.4999 55.8068C55.8895 55.8068 62.2277 56.6055 68.5143 58.2029C74.801 59.8003 81.3968 62.0934 88.3018 65.0821C91.4966 66.525 94.0731 68.6377 96.0313 71.4203C97.9894 74.2029 98.9685 77.5523 98.9685 81.4686V96H0.03125ZM9.30661 86.7246H89.6931V81.4686C89.6931 79.8196 89.2036 78.248 88.2245 76.7536C87.2454 75.2593 86.0345 74.1514 84.5916 73.43C77.9958 70.2351 71.9668 68.0451 66.5047 66.8599C61.0425 65.6747 55.3742 65.0821 49.4999 65.0821C43.6255 65.0821 37.9057 65.6747 32.3404 66.8599C26.7752 68.0451 20.7462 70.2351 14.2535 73.43C12.8106 74.1514 11.6255 75.2593 10.6979 76.7536C9.77038 78.248 9.30661 79.8196 9.30661 81.4686V86.7246ZM49.4999 37.1015C53.5192 37.1015 56.8428 35.7874 59.4709 33.1594C62.0989 30.5314 63.4129 27.2077 63.4129 23.1884C63.4129 19.1691 62.0989 15.8454 59.4709 13.2174C56.8428 10.5894 53.5192 9.27536 49.4999 9.27536C45.4805 9.27536 42.1569 10.5894 39.5288 13.2174C36.9008 15.8454 35.5868 19.1691 35.5868 23.1884C35.5868 27.2077 36.9008 30.5314 39.5288 33.1594C42.1569 35.7874 45.4805 37.1015 49.4999 37.1015Z" fill="#BE5037"/>
</svg>
